<svg width="500" height="500" xmlns="http://www.w3.org/2000/svg" preserveAspectRatio="xMidYMid meet">
 <metadata>Created by Lukas Pessoa Dantas</metadata>
 <g>
  <title>Layer 1</title>
  <g id="svg_47">
   <path id="svg_2" d="m131.35223,3.06561c-0.16908,0.56383 0.05647,1.91643 0.50734,2.93063c1.7471,4.05877 2.59273,8.45496 3.09995,16.00771l0.56358,7.89162l2.02927,1.85946c1.63452,1.52253 2.19823,1.74747 3.09996,1.24013c0.90186,-0.50686 1.12741,-1.18316 1.12741,-3.71989c0,-1.74699 -0.39452,-3.88885 -0.90186,-4.90403c-0.78926,-1.40908 -0.8455,-2.7052 -0.56372,-6.93244l0.33815,-5.18545l-4.28371,-5.12897c-2.36729,-2.81865 -4.34007,-5.12897 -4.45279,-5.12897c-0.11273,0 -0.33815,0.50686 -0.56358,1.0702z"/>
   <path id="svg_3" d="m338.83099,10.5064c-6.36899,3.3245 -7.89099,6.3121 -7.49698,14.7101c0.33798,6.8774 -0.16901,8.174 -2.367,5.8622l-1.29602,-1.3521l1.29602,-2.2548c1.29599,-2.2553 1.29599,-2.3113 0.28198,-3.4385c-0.84598,-0.9582 -1.74698,-1.1831 -4.284,-1.1831c-4.11398,0 -4.67801,0.6758 -4.95999,5.5798c-0.22501,4.9035 0.84601,6.651 5.46698,8.8494c1.91702,0.9022 3.43903,1.8604 3.43903,2.1413c0,0.2819 -1.409,0.3384 -3.10001,0.169c-2.931,-0.2819 -6.93301,-2.0854 -8.85001,-3.9449c-1.80301,-1.7474 -4.90298,-3.7208 -7.327,-4.6221c-2.48001,-0.9022 -2.76199,-0.9022 -4.05801,-0.0569c-1.07098,0.6772 -1.466,1.5785 -1.74799,3.5519c-0.16901,1.5215 -0.733,4.6781 -1.18301,7.1014c-0.90198,4.3402 -0.78998,6.3126 0.39401,5.9187c0.28201,-0.113 1.74701,-1.9165 3.21301,-4.0588c3.77698,-5.5233 4.05798,-5.6363 6.98898,-2.4798c3.72,4.0018 5.63699,4.5657 13.64001,4.1708l6.70798,-0.3939l-0.28198,2.1414c-0.16901,1.1831 -1.522,5.1854 -2.931,8.9058c-4.62201,11.8369 -7.10202,18.0361 -7.66501,18.9943c-0.79001,1.40961 -0.677,3.8329 0.16901,3.8329c1.01401,0 1.634,-0.6198 3.49399,-3.3815c0.90201,-1.4096 2.70599,-3.8329 3.94601,-5.3544c1.29599,-1.5785 3.32498,-4.45319 4.453,-6.4826c1.18298,-2.0293 2.64899,-4.1707 3.21198,-4.847c0.677,-0.6763 1.35303,-2.6492 1.69101,-4.7911c0.90201,-5.7493 1.409,-6.7635 5.58002,-10.9342c5.41199,-5.4674 5.35498,-7.5537 -0.112,-5.1295c-2.931,1.2966 -10.59702,2.5927 -10.59702,1.7475c0,-0.2259 0.62,-1.1272 1.409,-2.0854c1.353,-1.5785 1.409,-1.9734 1.409,-9.6391c0,-7.2708 0.11301,-8.173 1.297,-10.0325c3.043,-4.904 3.94501,-6.1442 4.39603,-6.1442c0.28198,0 0.50699,-0.6193 0.50699,-1.409c0,-1.80351 -0.67599,-1.74703 -4.73401,0.3388l0,0.0001z"/>
   <path id="svg_4" d="m161.338,21.2717c-2.02899,2.7056 -3.213,5.2419 -3.213,6.8764c0,1.9164 -1.80299,3.0436 -5.974,3.7759c-5.411,0.9582 -10.54001,2.7626 -12.739,4.5091c-2.423,1.9174 -3.269,2.0294 -3.269,0.6204c0,-1.6346 -3.043,-5.4674 -5.129,-6.4816c-1.07101,-0.4514 -2.81801,-1.8035 -3.83301,-2.8747c-2.931,-3.0435 -5.354,-2.4807 -3.1,0.6763c0.507,0.7328 1.635,3.3815 2.593,5.9183c1.578,4.4526 1.635,4.904 1.522,12.7946c-0.11301,6.8205 -0.05699,8.1731 0.67599,8.3421c0.451,0.0569 1.29701,-0.6763 1.91701,-1.6906c1.24001,-2.1423 6.425,-7.7786 7.10201,-7.7786c0.28099,0 0,0.8452 -0.621,1.8034c-1.46501,2.4238 -1.40901,3.2696 0.33899,7.0455c1.35201,2.8746 1.46501,3.5519 1.18301,7.7226c-0.22501,2.5358 -0.845,5.9747 -1.522,7.6652c-1.35201,3.7204 -1.35201,3.7204 -0.22501,4.1708c0.62,0.2259 1.804,-0.3944 3.382,-1.6345c1.74699,-1.4091 2.875,-1.9724 4.002,-1.8595c1.127,0.112 1.578,-0.1129 1.74699,-0.90221c0.451,-2.2543 10.033,-9.1873 11.16,-8.0596c0.16901,0.169 0.564,2.1974 0.789,4.4522c0.84599,7.2713 1.57899,9.4127 5.13,14.7681c1.86,2.7616 3.269,5.4673 3.21199,5.9182c-0.22499,0.9582 -1.465,1.0702 -7.15799,0.5633c-3.83301,-0.2819 -4.22701,0.5069 -1.578,3.1566c1.465,1.4655 2.48,1.9724 3.83299,1.9724c2.08501,0 6.87601,2.48071 8.623,4.4532c0.621,0.6198 1.522,1.1831 2.086,1.1831c3.04401,0 1.522,-10.5393 -2.086,-14.6541c-0.845,-1.0147 -3.72,-8.6239 -4.73399,-12.6822c-0.95801,-4.0588 -1.353,-11.4426 -0.62001,-14.0913c1.97301,-7.5527 1.97301,-7.6657 1.12701,-8.1726c-0.95801,-0.6203 -2.367,0.225 -6.87601,4.1138c-2.368,2.0294 -3.946,2.9316 -5.806,3.27c-1.409,0.2819 -3.438,0.9013 -4.509,1.4081c-2.198,1.0712 -2.311,1.0152 -2.593,-0.9012c-0.16899,-1.1832 0.282,-1.578 2.81801,-2.8187c3.72,-1.7469 9.131,-7.0454 9.131,-8.8488c0,-1.9724 -2.142,-1.6345 -6.08701,0.9582c-1.86,1.2401 -3.88899,2.2543 -4.56499,2.2543c-2.48001,0 -0.79001,-2.1983 3.043,-4.0018c2.70599,-1.2961 4.56599,-3.0996 4.90399,-4.7341c0.22501,-1.3531 1.97301,-1.8604 7.10201,-1.9164c2.81799,-0.057 4.058,-0.2819 4.058,-0.7893c0,-0.3388 -0.564,-2.5932 -1.183,-4.904c-0.621,-2.3673 -1.18401,-6.0312 -1.18401,-8.342c0,-4.6781 -0.677,-5.185 -2.875,-2.2543l0,0z"/>
   <path id="svg_5" d="m310.31,45.3955c-1.07098,0.5638 -2.64899,1.7479 -3.43799,2.6492c-1.578,1.7474 -7.271,11.0476 -7.271,11.9499c0,0.6758 0.39499,0.7887 8.73599,2.3663c3.72101,0.6773 7.215,1.6355 7.72198,2.0863c0.508,0.4504 1.353,1.9724 1.80402,3.382c1.69098,4.96 1.07098,5.2415 -2.931,1.2392l-2.87399,-2.8177l-2.42401,0.9582c-1.353,0.5074 -3.43799,1.5785 -4.67801,2.3668c-1.69098,1.0712 -2.931,1.4091 -4.90399,1.3531c-3.15601,-0.113 -3.77701,0.4514 -2.086,2.0294c2.03,1.8595 6.20099,2.5358 14.26099,2.1419c6.763,-0.33839 7.44,-0.4514 8.34201,-1.6346c1.522,-2.0294 2.367,-5.9752 2.423,-10.8787l0,-4.4527l-2.198,-0.3944c-1.74701,-0.2819 -2.931,-1.0711 -5.354,-3.6639c-2.875,-3.0436 -3.04401,-3.3255 -1.86099,-3.4944c0.677,-0.113 3.04398,0.5068 5.242,1.2961c3.66397,1.4096 5.57999,1.5216 5.57999,0.3949c0,-0.9018 -5.354,-5.5799 -7.77802,-6.8205c-2.81799,-1.4091 -3.776,-1.465 -6.31299,-0.0565l0,0.0001z"/>
   <path id="svg_6" d="m187.097,60.7269c2.198,14.82401 2.08501,17.9236 -0.507,23.5039c-2.537,5.3544 -2.368,7.10191 0.67601,8.455c1.29599,0.5633 2.142,1.5785 2.931,3.4949c2.254,5.1853 1.01399,7.8343 -3.72,7.8343c-2.198,0 -3.946,0.677 -9.3,3.382c-3.664,1.916 -6.651,3.213 -6.651,2.931c0,-0.958 4.453,-4.622 5.58,-4.622c1.522,0 4.565,-2.706 5.467,-4.904c0.95801,-2.255 1.071,-12.3439 0.16901,-12.9073c-1.29601,-0.7892 -3.83301,3.7199 -3.88901,6.8205c0,0.6763 -1.578,2.5357 -3.88899,4.6211c-2.086,1.91669 -4.28401,4.3397 -4.791,5.4117c-1.18401,2.536 -1.18401,5.242 0,5.693c0.733,0.281 0.50699,0.67599 -1.127,1.747c-1.12801,0.78899 -2.311,1.409 -2.537,1.409c-0.563,0 -1.183,-2.762 -1.183,-5.129c0,-2.593 -1.24001,-3.325 -5.91901,-3.325c-2.311,0 -4.34,0.28101 -4.509,0.62c-0.22499,0.281 -0.50699,3.324 -0.67599,6.763c-0.226,5.185 -0.11301,6.369 0.67599,7.609c0.507,0.789 0.733,1.692 0.451,1.917c-0.62,0.67599 -3.55099,0.846 -5.242,0.337c-2.198,-0.619 -9.29999,-3.494 -10.82199,-4.282c-0.56401,-0.339 -1.522,-0.565 -2.198,-0.565c-1.29701,0 -1.35301,-0.225 0.67599,5.356c1.69099,4.734 1.97299,8.90499 0.84599,12.73699c-1.015,3.43901 -3.60799,7.77901 -5.63699,9.414c-1.916,1.52101 -4.622,5.58 -9.582,14.20401c-2.762,4.847 -6.425,14.37199 -5.749,15.049c0.62,0.67599 2.536,-0.564 3.1,-1.97301c1.916,-4.95999 9.01801,-15.04999 11.94901,-17.02199c0.733,-0.451 2.98799,-2.36801 5.017,-4.22701c8.342,-7.61 11.61099,-13.584 10.202,-18.77c-0.338,-1.353 -0.507,-2.70599 -0.338,-2.987c0.22501,-0.282 3.043,-0.507 6.369,-0.507l6.08699,0l3.326,-3.439c4.17101,-4.171 11.27301,-9.413 15.838,-11.611c3.72,-1.804 6.99001,-2.593 16.233,-3.832c6.37001,-0.903 8.793,-1.861 8.793,-3.55199c0,-0.563 -1.52199,-2.593 -3.43799,-4.565c-5.41101,-5.6932 -6.08701,-8.004 -6.651,-23.4484c-0.33801,-10.5394 -0.507,-12.1749 -1.69101,-14.9366c-1.916,-4.5651 -2.02899,-4.791 -3.438,-4.96c-1.18399,-0.2249 -1.23999,-0.056 -0.90199,2.2548l0,0.0001z" fill="black"/>
   <path id="svg_7" d="m281.17001,60.1635c-2.36801,2.5927 -5.07303,6.7075 -6.70801,10.3145c-1.634,3.4944 -3.66299,5.3548 -5.862,5.3548c-1.86002,0 -6.31201,3.382 -7.89099,6.0307c-0.62003,1.0712 -1.12701,2.6493 -1.12701,3.55099c0,0.9017 -0.62,2.3673 -1.409,3.3255l-1.466,1.69151l-9.131,0.1689c-8.623,0.169 -9.3,0.2819 -12.231,1.6905c-3.83301,1.9165 -8.793,6.2002 -8.229,7.1024c0.282,0.50729 2.87401,0.6207 9.80701,0.3379c9.63899,-0.3379 18.82599,0.2828 23.05399,1.5218c1.29602,0.395 2.53601,0.62 2.70502,0.451c0.11301,-0.169 0.62,-2.42371 1.07098,-4.9604c0.90201,-5.072 1.91702,-7.1584 3.94501,-7.9466c4.341,-1.6355 17.24802,-23.44849 17.24802,-29.0284c0,-2.0289 -1.634,-1.8034 -3.776,0.3949l0,0z"/>
   <path id="svg_8" d="m286.07346,71.77406c0,0.22591 0.50735,1.80444 1.12717,3.49493c0.67642,1.69099 1.69098,4.45267 2.25482,6.14318c0.61981,1.69148 1.3526,3.326 1.57803,3.55191c0.28192,0.28094 1.35284,-0.16895 2.36728,-1.07117c1.52191,-1.24014 2.36731,-1.52253 4.17102,-1.40957c6.42569,0.50735 6.25662,0.56432 6.25662,-1.29612c0,-1.63451 -0.39462,-1.86044 -8.17307,-5.74928c-8.00385,-3.94581 -9.58188,-4.56514 -9.58188,-3.66389z"/>
   <path id="svg_9" d="m232.302,79.1579c-1.466,0.9022 -3.77701,2.5932 -5.073,3.7768c-1.24001,1.2401 -3.382,3.0996 -4.679,4.1148c-2.536,2.0284 -2.987,3.0996 -1.522,3.6629c2.70599,1.0152 8.399,-0.4504 12.57001,-3.2685c3.043,-2.0294 7.49599,-2.3678 11.89299,-0.9018c2.536,0.8453 4.565,1.1277 7.496,1.0147l4.05899,-0.1694l0.39401,-2.25439c0.16901,-1.2401 0.50699,-2.7626 0.733,-3.3819c0.50699,-1.5781 -1.69101,-3.4945 -4.56601,-3.9458c-2.02899,-0.338 -2.36699,-0.225 -3.21199,1.07111c-1.241,1.85999 -2.98801,1.85999 -5.468,0.0565c-1.634,-1.1836 -2.536,-1.4096 -5.862,-1.4096c-3.382,0 -4.453,0.2819 -6.763,1.6345l0,0.0001z"/>
   <path id="svg_10" d="m308.78799,80.173c-2.198,0.28191 -3.72,2.1974 -5.242,6.7075c-2.198,6.3126 -1.12698,23.8985 1.466,23.8985c0.50702,0 0.789,-0.62 0.789,-1.861c0,-0.958 0.50702,-4.509 1.07101,-7.834c0.90198,-5.1857 1.409,-6.6507 3.776,-10.5966c2.931,-4.96 4.17099,-6.2006 6.42599,-6.2006c1.63501,0 3.94598,-2.0854 3.94598,-3.5504c0,-0.8453 -0.677,-0.9582 -5.18597,-0.8453c-2.875,0 -6.08801,0.169 -7.04602,0.2819l0,0z"/>
   <path id="svg_11" d="m440.34399,83.78c-0.508,0.2819 -2.02899,0.7327 -3.32599,0.9582c-3.10001,0.5638 -4.11401,2.0853 -2.142,3.3815c2.64999,1.74741 4.397,3.8898 5.073,6.0877c0.677,2.3112 0.39499,3.4384 -1.97299,7.5536c-0.73203,1.239 -0.73203,1.408 0.05698,1.577c1.29602,0.283 5.63602,-1.465 7.55301,-3.043c0.901,-0.7897 1.74701,-2.1418 1.97202,-3.044c0.16998,-0.9013 1.07098,-2.5358 1.97299,-3.6639c1.409,-1.7465 1.522,-2.25439 1.01498,-3.438c-0.33899,-0.7328 -1.409,-1.86 -2.36798,-2.4793c-0.95801,-0.5643 -2.254,-1.5225 -2.931,-2.1424c-1.01401,-0.9582 -3.26901,-2.3677 -3.72,-2.3677c-0.112,0 -0.62,0.2819 -1.18301,0.6203l0,0z"/>
   <path id="svg_12" d="m299.939,86.2602c-2.931,1.5216 -6.03101,4.3402 -7.10199,6.4816c-1.578,3.0436 -5.354,6.4825 -9.46899,8.5112c-3.55103,1.747 -4.34,3.1 -1.74701,2.931c2.08499,-0.113 8.56699,-2.142 10.93399,-3.325c1.74802,-0.9024 2.875,-2.3679 6.03101,-7.7788c2.142,-3.7199 3.664,-6.9329 3.439,-7.1579c-0.28198,-0.2819 -1.18399,-0.1129 -2.086,0.3379l0,0z"/>
   <path id="svg_13" d="m426.08347,95.44748c-2.36731,2.14137 -6.76385,4.05779 -9.1875,4.05779c-0.73279,0 -2.19824,0.62031 -3.2128,1.40957c-2.31094,1.74747 -2.36728,1.74747 -2.59271,-0.16895c-0.16922,-1.40957 -0.33829,-1.52155 -2.8183,-1.46556c-2.14172,0 -3.0437,0.33791 -4.28372,1.52204c-0.84549,0.84525 -1.86005,1.52155 -2.19809,1.52155c-1.12741,0 -9.75122,9.30022 -10.99121,11.83695c-1.07104,2.14137 -1.24011,3.66341 -1.35284,10.033c-0.16907,6.53756 -0.3381,7.66473 -1.35284,8.96183c-1.40909,1.80345 -0.78888,2.76167 2.3111,3.26901c2.64932,0.45087 3.15643,1.12717 1.9729,2.47977c-0.78912,0.90222 -0.78912,1.18414 0.22531,3.15656c1.29648,2.53673 1.40909,3.60791 0.45111,5.63632c-1.46558,3.21352 -5.6366,2.53673 -10.48389,-1.69051c-2.42377,-2.08539 -4.17114,-3.15656 -5.63657,-3.38199c-1.12729,-0.22592 -3.3255,-0.61981 -4.79108,-0.90173c-1.4653,-0.28239 -3.4382,-0.50734 -4.33994,-0.50734c-0.90198,0 -2.931,-0.78926 -4.50928,-1.74748c-1.52182,-0.95821 -3.04373,-1.57803 -3.38174,-1.35211c-1.12753,0.67581 -0.62018,5.29793 0.90173,8.0596c1.80359,3.38199 3.38199,5.12947 8.39835,9.35622c5.35464,4.56613 5.74905,5.01698 6.20016,8.0041c0.67642,4.50867 3.77637,10.48386 7.10187,13.69688c1.69086,1.57803 3.38199,2.87465 3.77649,2.87465c0.84549,0 0.90173,-1.91643 0.05637,-3.43895c-0.2818,-0.61983 -0.95822,-4.1138 -1.40909,-7.72171c-0.95822,-7.38379 -1.8602,-9.30022 -5.12921,-11.49855c-2.98737,-2.02841 -6.42569,-5.52336 -6.08755,-6.14317c0.22556,-0.28241 1.07092,-0.50735 1.9729,-0.50735c1.24002,0 2.19824,0.7323 4.45282,3.32504c5.24191,6.03119 9.18738,7.49675 14.82379,5.52382c7.55301,-2.7052 8.06021,-3.77637 7.49664,-15.10547c-0.39462,-7.77867 -0.39462,-7.83467 0.90173,-8.96182c0.73279,-0.56383 1.91641,-1.07118 2.5365,-1.12717c1.97278,0 8.84921,-3.77687 11.16016,-6.0312c2.81827,-2.81863 3.94556,-5.18544 5.41113,-11.04768c1.57816,-6.6515 4.28372,-14.48518 5.58008,-16.17667c0.56357,-0.78926 2.14172,-2.02939 3.49457,-2.87464c3.94559,-2.31081 3.4946,-5.01601 -0.84549,-5.01601c-1.86008,0.05599 -2.76181,0.45087 -4.62186,2.14137zm-12.34381,16.90993c-0.39465,6.31213 -3.88922,13.80888 -7.72208,16.62753c-2.08551,1.46556 -7.21472,3.77588 -8.56744,3.77588c-1.80371,0 -2.81815,-2.70569 -2.7619,-7.32731c0,-3.6639 0.22556,-4.73459 1.35284,-6.31262c1.69086,-2.42377 2.48001,-3.04359 5.58008,-4.45316c5.52371,-2.53625 6.48193,-3.26854 7.60922,-5.35442c2.08551,-4.00179 2.02914,-3.94581 3.49457,-2.25433c1.12729,1.3526 1.24014,1.97242 1.01471,5.29842z"/>
   <path id="svg_14" d="m204.00638,95.22253c-0.50735,1.35213 1.40907,3.60693 4.11464,4.90305c4.50903,2.19834 14.20399,3.60791 15.10573,2.25433c0.22543,-0.44989 -1.46544,-4.56516 -2.36728,-5.69231c-0.11285,-0.11295 -2.19833,-0.28191 -4.56564,-0.39487c-2.36728,-0.056 -5.86176,-0.50735 -7.72194,-0.95821c-4.05817,-1.0702 -4.17101,-1.0702 -4.56551,-0.11199z"/>
   <path id="svg_15" d="m75.2692,108.299c-3.9454,1.74699 -5.8618,5.186 -3.7201,6.933c0.3946,0.338 0.902,1.578 1.0711,2.762c0.1691,1.127 0.8454,4.96 1.4655,8.45399c1.0708,6.088 1.0708,8.004 0,8.004c-0.5637,0 -5.693,-3.83299 -6.2001,-4.62199c-0.4511,-0.733 -3.4384,-0.338 -3.7202,0.508c-0.1127,0.33701 0.67651,1.634 1.8037,2.87401c4.002,4.50899 7.6093,12.457 8.4547,18.82599c0.3946,2.987 1.5219,4.002 4.1147,3.72l1.5218,-0.16899l0.3382,-8.173c0.3382,-8.173 1.0147,-12.174 2.5365,-14.317c0.45081,-0.62 0.789,-2.368 0.789,-3.88899c0,-3.49501 -1.2402,-4.11501 -3.2128,-1.578c-2.48,3.15599 -2.8182,2.48 -2.9309,-5.97501c-0.1128,-7.045 0,-7.891 1.1835,-10.146c1.2965,-2.48 1.2965,-2.48 0.2256,-3.325c-1.35281,-0.958 -1.2401,-0.958 -3.7201,0.11301l-0.0001,0z"/>
   <path id="svg_16" d="m322.37234,109.93363c-1.9729,0.90125 -9.9765,1.29612 -12.2312,0.61933c-1.46545,-0.45039 -1.57816,-0.39439 -1.40909,0.84623c0.1127,1.0702 0.78912,1.46507 4.05817,2.25433c2.14197,0.56334 5.07285,1.12717 6.59476,1.3526c1.46558,0.22592 2.98737,0.73278 3.38199,1.18413c0.78891,0.95821 0.95822,4.17076 0.50711,8.398c-0.39438,3.55045 0.45111,5.01601 2.142,3.77637c4.45279,-3.10056 5.91833,-3.66341 10.20206,-3.83286c4.67822,-0.16895 7.94727,0.50735 10.2583,2.19785c1.29626,0.90222 1.57816,1.69147 2.08551,5.41138c0.45087,3.9458 0.3945,4.50864 -0.73279,6.82045c-1.9729,3.9458 -0.22543,6.08716 2.53638,3.09958c1.63464,-1.74748 2.36728,-1.74748 4.50928,-0.22496c0.95822,0.7323 1.97266,1.07118 2.53638,0.84526c0.84537,-0.28241 0.90189,-0.84526 0.56357,-3.60692c-0.56357,-4.28421 -0.3945,-8.68089 0.2818,-10.59732c0.50735,-1.29662 0.4509,-1.85947 -0.45087,-2.98711c-0.5636,-0.84525 -1.69089,-1.52204 -2.42377,-1.635c-0.73267,-0.11198 -1.6344,-0.28143 -2.0289,-0.39439c-0.39465,-0.11295 1.4653,-2.42329 4.05817,-5.07298c2.64908,-2.64872 4.79108,-5.18497 4.79108,-5.63632c0,-1.52155 -1.69089,-1.57803 -3.83289,-0.11296c-2.64908,1.86044 -4.79105,2.6497 -6.98917,2.6497c-0.95819,0 -2.59283,0.56383 -3.72025,1.24013c-2.47989,1.52155 -10.93472,2.08537 -14.48553,0.90125c-2.2547,-0.73229 -2.4238,-0.95821 -5.01663,-6.65054c-0.789,-1.63451 -2.64908,-1.97242 -5.18546,-0.84525z"/>
   <path id="svg_17" d="m61.1781,116.81c-1.4091,0.22501 -2.8182,1.578 -2.8182,2.649c0,0.958 9.2439,9.41299 9.9765,9.131c1.1838,-0.507 2.0292,-4.67799 1.2963,-6.82c-0.6762,-1.973 -3.43819,-4.791 -4.79079,-4.791c-0.39471,0 -1.071,-0.113 -1.5218,-0.226c-0.3947,-0.113 -1.3529,-0.056 -2.142,0.057l0,0z"/>
   <path id="svg_18" d="m132.25409,119.91015c-2.2547,2.47928 -3.83286,6.87645 -3.55107,10.033c0.28192,3.43799 1.52193,3.09959 4.28372,-1.07117c2.14186,-3.26952 2.36729,-3.94582 2.36729,-6.98941c0,-1.91643 -0.22543,-3.60693 -0.56358,-3.77589c-0.2818,-0.16944 -1.46556,0.61933 -2.53636,1.80347z" fill="black"/>
   <path id="svg_19" d="m105.143,121.262c-1.63499,1.41 -4.679,6.652 -5.6932,9.80801c-0.2255,0.78899 -0.9582,2.81799 -1.5782,4.50899c-0.6764,1.69101 -1.1838,3.49501 -1.1838,4.058c0,1.692 -0.9017,1.57901 -3.2127,-0.394c-1.86,-1.578 -2.36729,-2.42299 -2.7056,-4.56599c-0.5071,-3.60699 -2.8182,-8.68 -3.8891,-8.68c-0.789,0 -0.9017,1.015 -0.9017,6.764c0,7.94699 -0.7329,11.83701 -2.5929,14.091l-1.409,1.63499l2.9308,2.87399c1.5782,1.578 3.2128,2.76201 3.5511,2.649c0.3381,-0.112 0.6199,-1.353 0.6764,-2.705c0,-4.17099 0.2253,-5.806 0.789,-6.70699c0.3945,-0.677 0.6763,-0.621 1.69099,0.282c2.1981,2.028 2.6492,3.72 2.98721,11.554c0.1691,4.34 0.6765,9.075 1.24,10.991c3.0438,11.27299 3.7764,11.83699 4.2837,3.60699c0.338,-5.636 1.578,-9.52499 2.988,-9.52499c1.972,0 2.423,-2.76201 2.761,-15.5c0.339,-13.64 1.184,-19.107 3.608,-22.659c0.73199,-1.071 1.24,-2.367 1.071,-2.762c-0.508,-1.296 -3.495,-0.902 -5.411,0.676l0,0z"/>
   <path id="svg_20" d="m241.545,135.974c-5.636,0.16901 -16.34599,1.24001 -20.573,1.972c-5.636,1.015 -15.726,3.83301 -20.855,5.91901c-4.002,1.57799 -4.453,1.74699 -8.73601,3.72c-13.528,6.144 -31.78999,22.15099 -40.245,35.34c-0.90201,1.409 -2.08501,3.213 -2.705,4.05899c-0.564,0.845 -1.015,1.69101 -1.015,1.804c0,0.16901 -1.01401,1.972 -2.254,4.00101c-4.90401,8.004 -8.96201,18.093 -11.49901,28.634c-2.76199,11.32899 -2.76199,11.04799 -2.64899,24.011c0.056,11.89299 0.95799,22.377 2.875,33.424c2.64899,15.21899 18.375,44.47198 30.549,56.87299c4.84799,4.90302 16.741,14.823 20.743,17.24701c3.381,2.02899 8.39799,4.56601 14.65401,7.327c1.409,0.621 3.83299,1.74802 5.355,2.42401c6.42599,2.875 16.571,5.57999 25.92799,6.82098c24.349,3.26801 52.92601,-4.34097 74.739,-19.89697c5.13,-3.608 11.21701,-8.68103 13.75299,-11.38602c6.99002,-7.44 14.035,-16.00699 15.10602,-18.375c0.22598,-0.45099 1.12698,-1.97299 2.02899,-3.38199c4.397,-6.82001 9.86401,-19.784 11.78101,-28.18201c4.28299,-18.14999 4.28299,-32.91701 0,-50.729c-1.91699,-8.06 -7.328,-20.51601 -12.00601,-27.562c-9.01797,-13.64101 -23.72998,-25.082 -43.11899,-33.48c-7.83499,-3.38301 -18.60101,-5.86301 -29.31,-6.65201c-17.36,-1.35201 -33.931,1.01401 -44.81,6.42599c-3.26901,1.578 -10.59601,6.425 -14.091,9.3c-7.215,5.806 -12.513,10.82201 -15.106,14.26001c-2.931,3.89 -9.864,18.82599 -11.16,24.181c-1.071,4.17099 -2.25499,14.711 -2.593,22.26399c-0.338,8.116 0.22601,14.76801 1.86,20.91101c2.367,9.29999 12.28801,24.85699 21.64401,33.93198c2.64899,2.59302 9.29999,7.328 12.68199,9.01801c10.935,5.52402 26.717,8.28601 39.51201,6.93301c16.459,-1.69101 28.57698,-7.215 39.84999,-18.03601c8.849,-8.51099 13.75299,-17.69998 15.89499,-29.64798c1.01401,-5.69302 1.07101,-8.45502 0.056,-14.09102c-0.845,-4.735 -1.23999,-5.976 -3.60699,-10.879c-3.10001,-6.595 -7.44,-10.427 -13.41498,-11.95c-2.64902,-0.67599 -3.10001,-0.62 -4.79102,0.338c-5.918,3.382 -5.918,15.05 -0.11301,24.576c3.439,5.63599 -0.39398,21.13699 -7.21399,28.802c-2.142,2.47998 -7.83499,7.15799 -8.67999,7.15799c-0.17001,0 -1.24002,0.564 -2.42401,1.29602c-1.12799,0.67798 -3.495,1.69199 -5.186,2.19897c-1.69098,0.56403 -4.11398,1.29602 -5.354,1.69101c-2.87498,0.901 -14.03499,0.901 -18.60098,-0.05701c-12.79401,-2.64798 -22.43301,-7.83398 -30.21101,-16.28799c-9.019,-9.86398 -13.584,-21.58798 -13.64099,-35.341c-0.056,-11.442 2.368,-19.05199 9.41299,-29.87399c3.664,-5.636 4.17101,-6.256 8.793,-11.16c5.91901,-6.256 13.13301,-11.104 19.67101,-13.133c4.961,-1.578 23.89899,-3.21201 31.90298,-2.76201c6.651,0.395 11.61102,1.18401 16.62701,2.649c14.88101,4.341 31.95901,18.431 40.978,33.819c5.80499,9.92 8.34201,17.981 9.30002,29.70502c1.01498,12.513 -0.28201,24.405 -3.776,34.72c-3.49503,10.25897 -15.50101,26.04099 -27.845,36.52499c-2.987,2.535 -5.80502,4.84698 -6.31201,5.185c-0.508,0.28198 -2.086,1.353 -3.439,2.367c-6.595,4.67798 -20.517,10.48398 -31.11301,12.96399c-5.806,1.297 -20.63,1.57901 -27.168,0.508c-9.526,-1.63498 -18.60001,-4.84799 -26.83,-9.46899c-2.08499,-1.18399 -4.058,-2.14301 -4.34,-2.14301c-1.127,0 -11.047,-6.36798 -14.993,-9.58099c-15.951,-13.19 -26.77301,-32.86099 -31.84601,-58.056c-1.01399,-5.129 -2.254,-16.34601 -2.198,-20.855c0,-5.017 1.24001,-14.93701 2.424,-18.882c0.451,-1.57899 1.46501,-5.243 2.254,-8.23c1.63501,-6.14301 3.15701,-10.483 5.468,-15.612c0.901,-1.97301 1.634,-3.664 1.634,-3.77701c0,-0.621 6.651,-11.104 8.85001,-13.923c5.129,-6.707 15.61299,-15.72499 23.222,-19.896c0.56299,-0.338 1.409,-0.90199 1.804,-1.24001c0.901,-0.67699 7.327,-3.94499 11.21599,-5.69299c3.776,-1.634 7.44,-2.81799 14.43001,-4.62199c9.46899,-2.42401 16.17599,-3.043 30.09799,-2.649c11.49899,0.338 15.89502,0.84599 27.05499,3.157c5.12903,1.071 15.83902,4.283 18.88303,5.636c0.61899,0.282 2.142,0.95799 3.38098,1.465c5.63699,2.424 11.49899,5.63699 15.72601,8.56799c2.47998,1.74701 4.67798,3.32501 4.84698,3.49501c0.17001,0.16899 2.086,1.80299 4.341,3.60699c2.254,1.74701 6.53799,5.69301 9.52499,8.737c9.69501,9.75101 14.76801,16.79601 20.17902,28.013c5.185,10.59601 11.61099,27.33701 11.61099,30.155c0,1.578 2.02899,7.384 2.59302,7.384c0.78897,-0.05699 0.95798,-9.30099 0.22498,-16.966c-0.733,-7.49699 -2.254,-15.67 -3.66299,-19.784c-1.63501,-4.62199 -6.08798,-14.25999 -8.28601,-17.868c-1.18399,-1.91701 -2.142,-3.60701 -2.142,-3.776c0,-0.11301 -1.80399,-2.93201 -4.00198,-6.313c-9.69501,-14.655 -30.49301,-31.565 -51.517,-41.823c-12.06201,-5.918 -16.12,-7.327 -27.901,-9.582c-5.862,-1.127 -23.617,-2.19901 -32.12801,-1.916l0,0z"/>
   <path id="svg_21" d="m121.82658,138.79201c-1.52192,1.3526 -3.43835,2.59273 -4.22723,2.76169c-4.00192,0.78926 -4.96014,3.21303 -6.48206,15.72578c-1.74735,14.3732 -1.57828,17.41679 0.8455,14.31721c3.04372,-3.88983 10.99097,-21.19365 12.6256,-27.56227c0.90198,-3.49493 1.12729,-7.10237 0.45087,-7.49675c-0.28179,-0.16896 -1.69087,0.84526 -3.21268,2.25433z"/>
   <path id="svg_22" d="m401.62115,159.75974c0,0.78926 -6.20029,7.38379 -6.98917,7.38379c-0.33841,0 -1.35284,0.62033 -2.25458,1.29663c-2.59283,2.08536 -1.57828,2.87462 3.49457,2.47928l4.22739,-0.33792l-2.08563,1.69148c-2.59286,2.19833 -2.70544,4.22676 -0.3945,6.82045c1.57828,1.80347 1.69086,1.80347 2.7619,0.84525c0.61996,-0.56432 1.29639,-1.74747 1.52182,-2.53671c0.16907,-0.84526 1.12726,-2.31129 2.08548,-3.26953c2.25458,-2.36681 1.97278,-3.83237 -0.84549,-4.05829l-2.14185,-0.16895l1.40906,-1.63452c1.63464,-1.97241 2.31107,-5.35489 1.52191,-7.49628c-0.56369,-1.40956 -2.31091,-2.19881 -2.31091,-1.01468z"/>
   <path id="svg_23" d="m112.695,178.24699c-1.071,1.18401 -2.649,3.608 -3.494,5.35501c-0.84599,1.804 -1.74799,3.15599 -2.086,3.09999c-0.281,-0.11299 -0.845,-1.071 -1.183,-2.142c-0.677,-1.97299 -2.255,-2.87399 -2.762,-1.522c-0.113,0.395 -0.508,4.791 -0.789,9.75101c-0.451,7.215 -0.451,9.245 0.16901,10.146c1.127,1.74701 1.578,4.228 0.958,5.017c-0.394,0.45 -0.451,2.70601 -0.22501,6.14301c0.28101,4.79199 0.45,5.467 1.409,5.467c0.67599,0 1.014,-0.394 1.014,-1.183c0,-1.23999 2.198,-9.864 3.608,-14.091c0.451,-1.353 1.634,-5.129 2.592,-8.39899c1.015,-3.26901 2.142,-6.98801 2.593,-8.229c0.395,-1.29601 1.015,-4.058 1.409,-6.08701c1.015,-5.86299 0.057,-6.821 -3.213,-3.326l0,0z"/>
   <path id="svg_24" d="m399.92999,182.58701c-1.522,1.409 -6.31299,2.59299 -10.48398,2.59299c-2.87402,0 -4.11401,0.22601 -4.34003,0.733c-0.39398,1.071 1.40903,4.791 3.43903,7.158c1.57797,1.804 1.80298,1.91701 2.987,1.18401c1.18399,-0.67601 1.409,-0.62001 2.59299,0.845c0.67599,0.90199 1.521,2.31099 1.80301,3.21399c0.508,1.408 0.45099,1.46501 -0.45102,0.95801c-0.56299,-0.282 -1.18298,-0.90201 -1.409,-1.41c-0.39398,-1.127 -2.59299,-1.127 -2.59299,0.05701c0,0.50699 0.508,1.80299 1.18399,2.81799c2.02899,3.325 2.311,5.298 2.53702,19.67101c0.22498,14.373 0.39398,16.62799 1.35199,16.62799c0.677,0 2.36798,-3.43799 3.32599,-6.76399c0.45102,-1.409 1.12701,-3.664 1.522,-5.01601c0.45099,-1.409 0.789,-3.495 0.789,-4.67799c0,-2.537 1.522,-5.80701 3.664,-7.77901c2.02899,-1.91699 8.67999,-9.864 10.59601,-12.739c1.522,-2.311 1.97299,-4.17099 0.95801,-4.17099c-0.28201,0 -2.53601,1.07199 -4.90302,2.368c-2.42401,1.29599 -5.13,2.705 -6.03201,3.15599c-0.901,0.45201 -2.59198,1.804 -3.832,3.04401c-1.18399,1.18401 -2.36798,2.086 -2.64899,1.916c-0.22601,-0.16901 -0.90201,-1.353 -1.466,-2.649c-1.01498,-2.142 -1.01498,-2.368 -0.11301,-2.81799c0.677,-0.395 0.95901,-1.29601 0.95901,-2.931c0,-2.367 0.789,-5.636 2.59201,-10.653c1.409,-4.11501 0.22598,-6.87601 -2.02902,-4.735l0,0z"/>
   <path id="svg_25" d="m101.366,259.75101c-0.282,0.33798 -1.24,2.423 -2.1417,4.621c-2.4237,6.08798 -8.2855,17.64301 -10.8221,21.41998c-2.7618,4.11401 -5.8619,7.21402 -7.6092,7.608c-0.7892,0.22601 -1.2963,0.73401 -1.2963,1.409c0,1.01501 0.84541,1.41 4.45271,2.255c1.5219,0.33801 1.5782,0.45102 1.29639,2.59302c-0.3382,2.42398 0.1127,2.875 3.382,3.55099c1.6908,0.39499 1.9164,0.22501 4.9036,-3.77701c1.7474,-2.31 3.3255,-5.01599 3.4947,-5.974c0.2253,-0.95801 0.6764,-1.74701 1.1273,-1.74701c1.4091,0 6.5946,10.14502 7.2146,14.034c0.507,3.32602 3.10001,8.51202 4.566,9.07501c1.521,0.564 4.791,4.284 4.791,5.41101c0,1.74799 3.494,5.974 5.861,7.04599c2.762,1.23999 3.946,1.35199 4.792,0.33801c0.45,-0.62003 -0.169,-1.69101 -2.762,-4.96002c-1.804,-2.311 -3.66399,-4.79099 -4.058,-5.57999c-0.339,-0.79001 -1.015,-1.80402 -1.353,-2.255c-0.395,-0.45099 -2.086,-3.664 -3.777,-7.04599c-6.651,-13.358 -10.54,-29.14001 -10.54,-42.724c0,-5.242 -0.451,-6.76401 -1.522,-5.298l0,0z"/>
   <path id="svg_26" d="m392.65921,281.33838c-1.63464,2.08539 -1.46558,3.83289 0.5072,5.46735c0.95822,0.78931 1.69089,1.86047 1.69089,2.31131c0,0.50735 0.22556,0.90125 0.50735,0.90125c1.86005,0 4.00192,-5.80527 3.10007,-8.34152c-0.3945,-1.2406 -0.95822,-1.57849 -2.59274,-1.69049c-1.63461,-0.11298 -2.25458,0.112 -3.21277,1.35211z"/>
   <path id="svg_27" d="m391.75735,297.45905c-1.46558,6.81946 -4.00192,15.95078 -5.63657,20.4599c-2.36731,6.53854 -4.28372,9.35672 -7.94739,11.83649c-7.15836,4.84802 -14.31671,14.03528 -14.31671,18.319c0,0.6763 -0.3945,2.08536 -0.90186,3.15607c-0.7327,1.57803 -1.40912,2.08633 -3.3819,2.53622c-1.69086,0.45139 -2.8746,1.18414 -3.66348,2.3118c-1.46561,2.02841 -1.01471,3.49445 0.9017,3.09961c0.78912,-0.11298 2.87463,0.11295 4.67822,0.50729c1.74747,0.45087 4.39655,0.78882 5.86188,0.78882c1.63461,0 3.38196,0.45135 4.50928,1.12766c2.93088,1.74698 3.26929,0.95816 3.26929,-7.43979c0,-8.84937 0.39438,-9.80756 6.53818,-16.12067c4.96014,-5.01651 6.48193,-7.66571 7.04562,-11.94897c0.45087,-3.43845 1.35272,-7.2153 1.85992,-7.77863c1.57828,-1.52206 2.31094,8.17303 0.95822,12.56873c-0.33817,1.24063 -1.74722,4.34021 -3.04373,6.87695c-2.36728,4.62158 -2.36728,4.62158 -1.23999,5.74924c0.62009,0.56387 2.9874,1.46512 5.24203,1.97293c2.53638,0.56335 5.41089,1.74701 7.72183,3.15607c2.02927,1.24011 3.88922,2.25433 4.17111,2.25433c0.2818,0 1.18365,0.78925 1.97269,1.7475c1.18362,1.35306 1.46555,2.31128 1.46555,4.62207c0,4.56616 -0.50732,4.90405 -4.17099,3.04364c-3.04373,-1.57803 -4.28372,-1.63452 -4.28372,-0.22498c0,1.18317 11.32922,11.66751 14.20392,13.13309c2.25455,1.12714 4.28366,0.61981 5.01636,-1.35361c1.12741,-2.87463 -1.0708,-15.27444 -3.21271,-18.59991c-2.70554,-4.17123 -3.43829,-15.83878 -1.29648,-21.53107c0.62009,-1.69153 1.35284,-4.34021 1.63464,-5.91824c0.2818,-1.52255 1.07092,-3.49496 1.69086,-4.34018c0.62012,-0.84576 1.12741,-1.69104 1.12741,-1.91647c0,-0.22592 0.90189,-1.46603 1.97281,-2.81863c2.19821,-2.7052 2.48001,-3.6069 0.95807,-3.6069c-0.95807,0 -9.69458,6.93289 -11.21649,8.84933c-0.3945,0.45087 -1.91641,1.07022 -3.3819,1.35211c-3.4382,0.62033 -5.6929,3.04407 -7.10199,7.55273c-0.56357,1.80447 -0.90186,3.38297 -0.73279,3.49493c0.39465,0.39487 2.36731,-0.78925 4.39658,-2.64868c2.98737,-2.70569 3.21268,-2.42377 2.87463,4.05777c-0.16907,3.21304 -0.39462,5.9187 -0.50732,6.03168c-0.1127,0.112 -0.84549,-0.33838 -1.69101,-1.01517c-0.84552,-0.6763 -2.6492,-1.52158 -4.00177,-1.85944l-2.48013,-0.62033l0.28177,-6.25662c0.16922,-3.43848 0.50732,-8.56744 0.67642,-11.44208c0.39462,-5.63629 -0.45099,-14.82361 -1.80359,-19.89658c-1.353,-4.96048 -2.59271,-7.89114 -3.32562,-7.89114c-0.39438,0 -1.0708,1.97247 -1.69086,4.62213z"/>
   <path id="svg_28" d="m95.8988,302.25c-2.31091,1.91699 -3.2691,3.49399 -2.1418,3.60699c4.22729,0.39502 5.3546,1.63501 4.8473,5.35501c-0.3382,3.10001 0.5073,8.51099 1.8597,11.104c0.677,1.35199 1.015,1.521 2.65,1.18298c1.634,-0.28198 2.198,-0.056 4.17,1.69101c1.86,1.69101 2.311,1.91699 2.875,1.23999c1.466,-1.74698 -0.78899,-6.25598 -3.382,-6.82001c-2.705,-0.62 -3.382,-2.31 -3.889,-9.80698c-0.62,-9.97702 -2.029,-11.49902 -6.9892,-7.55301l0,0z"/>
   <path id="svg_29" d="m67.66,302.92599c-1.24001,0.95901 -4.0019,2.255 -6.2001,2.931c-6.0874,1.86002 -5.5801,1.07101 -5.9184,9.582c-0.338,9.01801 -1.6908,13.52802 -6.1436,20.63c-1.6909,2.81799 -2.8747,3.04401 -3.8329,0.845c-0.3945,-0.845 -1.24,-2.81799 -1.9726,-4.34c-1.1838,-2.59302 -1.2964,-3.60699 -1.2964,-13.358c0,-9.30099 -0.1127,-10.65302 -0.9582,-11.55499c-1.1838,-1.12802 -1.6347,-0.733 -2.7056,2.08499c-3.4382,9.18799 -9.131,19.108 -12.3438,21.47501c-1.4656,1.07098 -1.7474,1.63498 -1.7474,3.72c0,1.353 0.1691,2.42398 0.3946,2.42398c0.169,0 1.409,-0.62 2.6492,-1.353c1.2962,-0.73199 2.9873,-1.466 3.7763,-1.634c0.8454,-0.22498 2.2547,-1.18399 3.213,-2.142c1.9726,-2.02899 2.1982,-1.69098 2.3108,3.15701c0.0564,1.521 0.2255,3.32498 0.4509,3.94501c0.7328,2.47998 5.2983,8.73599 7.3275,10.03299c1.8037,1.18298 2.3108,1.91599 3.1564,4.84698c0.8455,3.04401 1.1273,3.49503 2.2546,3.32602c1.1273,-0.16901 1.24,-0.39502 1.0709,-3.55099c-0.1692,-3.10101 0,-3.83301 2.1419,-7.77902c4.2837,-7.94699 7.1583,-18.31799 7.8346,-28.57599c0.2819,-4.849 0.4509,-5.35501 1.4655,-5.35501c0.9582,0 1.1274,0.33801 0.9582,2.198c-0.1691,1.74701 0.1127,2.48001 1.3527,3.77701c2.7619,2.92999 3.8329,1.97202 4.34019,-4.05899c0.16911,-2.02899 0.7328,-4.73401 1.2401,-5.97501c0.958,-2.423 0.958,-6.42499 0,-6.763c-0.3384,-0.11301 -1.6346,0.56299 -2.8184,1.465l0,0z"/>
   <path id="svg_30" d="m73.2401,315.664c-2.1418,2.64999 -4.0583,4.79099 -4.2836,4.79099c-0.22559,0 -0.451,0.621 -0.451,1.354c0,1.18301 0.3383,1.35202 2.8747,1.69c2.93079,0.39502 4.4526,-0.16901 4.4526,-1.69c0,-1.297 1.2966,-1.57898 2.08549,-0.452c0.6202,0.90302 1.5219,1.07199 5.1294,1.12799c5.58,0.056 7.44,0.45102 8.5109,1.80301c1.5784,1.97299 3.2128,2.48102 5.6928,1.74802c1.1838,-0.39401 2.3111,-1.01501 2.48019,-1.41c0.169,-0.45102 -0.5073,-1.85901 -1.522,-3.15601l-1.8599,-2.42401l-4.3965,-0.16898c-5.0163,-0.16901 -6.82,-1.07101 -11.0474,-5.41c-1.3528,-1.41 -2.8182,-2.59402 -3.2128,-2.59402c-0.3383,0 -2.3673,2.14203 -4.4529,4.79102l0,0z"/>
   <path id="svg_31" d="m420.95425,323.16089c-0.45087,0.28189 -0.73279,3.21301 -0.95822,8.73688c-0.2818,8.84937 -0.16907,9.18726 2.36728,7.38376c0.73279,-0.50729 1.40909,-0.78922 1.52194,-0.6763c0.5072,0.45038 -1.85995,5.74933 -3.1001,7.0459c-0.73276,0.7323 -2.02914,1.52109 -2.931,1.69049c-3.83286,0.73282 -2.48001,4.00183 2.64923,6.48206c4.17099,1.97244 4.79092,2.59277 3.49457,3.55096c-0.50735,0.33789 -1.07092,1.3526 -1.23999,2.31079c-0.22543,0.90173 -0.6763,2.19833 -1.01459,2.93115c-0.73279,1.52155 0,3.10004 1.52179,3.38199c1.80371,0.39438 2.59286,-0.95822 2.59286,-4.45316c0,-3.71988 0.67642,-4.22772 2.02902,-1.52203c2.6492,5.24188 4.84738,5.6373 9.13126,1.57852c3.21268,-3.0441 5.12909,-3.66391 9.75095,-3.26904c3.83286,0.39438 5.862,2.36728 6.76385,6.59451c0.8454,3.9458 2.76181,7.77866 4.73447,9.63812c2.59286,2.42377 11.78036,7.32779 13.69678,7.32779c2.59274,0 3.4946,-0.67627 3.4946,-2.48074c0,-1.35211 -0.45087,-2.02838 -2.02914,-3.09955c-1.12729,-0.78925 -3.26904,-2.76172 -4.73459,-4.45319c-2.5365,-2.87463 -3.94559,-3.38147 -3.94559,-1.46503c0,2.42328 -4.73471,-1.7475 -5.41101,-4.7341c-1.52191,-7.32782 -1.97278,-8.11707 -7.38379,-13.52798c-3.4382,-3.43796 -5.63644,-5.18542 -6.48193,-5.18542c-0.84549,0 -2.48001,1.3526 -4.96014,4.0018c-3.04358,3.26904 -4.0018,3.94531 -5.52371,4.0018c-2.25458,0.05646 -3.66367,-1.18414 -5.52371,-4.96002c-1.29639,-2.70569 -1.40909,-3.38147 -1.07095,-7.15839c0.50735,-5.52429 0.05649,-7.72168 -1.69098,-7.72168c-1.63452,0 -1.97266,-0.90222 -1.97266,-5.46735c0,-5.017 -1.63464,-7.83466 -3.77649,-6.48254z"/>
   <path id="svg_32" d="m68.9565,326.60001c-0.7891,0.845 -1.69109,2.479 -2.142,3.49399c-1.7473,4.621 -3.8891,8.737 -5.0164,9.75101c-1.24,1.12698 -1.5782,2.59299 -0.5635,2.59299c1.0708,0 5.8618,-2.42398 7.5527,-3.83298c1.9729,-1.63501 3.6638,-4.22702 3.6638,-5.58002c0,-0.50699 0.6764,-2.08499 1.46529,-3.439l1.5219,-2.53601l-1.2963,-1.06998c-1.8036,-1.466 -3.6073,-1.241 -5.1855,0.62l0,0z"/>
   <path id="svg_33" d="m113.8792,330.99554c0.16908,0.90222 1.24001,2.70566 2.31081,4.05829c1.91642,2.48022 1.91642,2.53625 1.91642,8.28552c0,3.43896 0.22556,5.9187 0.56358,6.14465c0.39462,0.22491 0.4511,1.29608 0.28191,2.76163c-0.33815,2.31033 -0.28191,2.42331 2.98736,5.5799c3.66378,3.43796 4.11465,3.66385 5.18569,2.42377c0.78889,-0.95822 -0.4511,-4.05881 -2.31105,-5.74933c-1.74735,-1.57852 -1.29649,-1.91641 2.48001,-1.91641c3.38187,0 4.17101,0.28192 7.83466,2.93066c0.73277,0.50732 1.12741,0.5643 1.57828,0.11295c0.45088,-0.45087 0.33815,-1.57803 -0.45087,-4.0578c-1.8602,-5.58032 -2.14198,-5.91824 -4.62199,-5.58032c-1.12729,0.11197 -2.42365,0.11197 -2.76192,-0.11298c-1.01446,-0.62027 -1.85995,-6.98941 -1.18353,-8.79288c1.74725,-4.6221 -0.05648,-6.70746 -5.35464,-6.14365c-2.64922,0.28189 -3.88921,0.11249 -5.24194,-0.56381c-2.70568,-1.4086 -3.72013,-1.18365 -3.21278,0.61981z"/>
   <path id="svg_34" d="m436.22903,336.85779c-0.56357,0.67627 -1.63449,1.40955 -2.31091,1.69049c-1.80371,0.67725 -1.63452,1.46558 0.67642,2.81866c2.19821,1.2966 2.931,3.15652 1.97278,4.96002c-0.84561,1.63452 -0.22543,3.43796 1.23987,3.43796c2.02927,0 4.34021,-1.85947 5.63657,-4.6221c1.29639,-2.70471 1.29639,-2.70471 4.11465,-2.70471c3.0437,0 6.48193,1.63452 6.48193,3.04358c0,0.45038 -0.56357,0.90173 -1.23999,1.01471c-2.08551,0.28192 -1.63464,2.14136 0.61993,2.93063c2.25458,0.73276 11.4422,8.96182 12.56937,11.16013c0.3945,0.90222 1.18365,1.57855 1.80359,1.57855c0.95831,0 1.01456,-0.28195 0.62018,-3.26953c-0.33829,-2.98712 -2.76193,-8.56693 -3.66379,-8.56693c-0.22543,0 -1.35272,-1.86047 -2.48001,-4.17123c-3.72012,-7.72171 -8.9057,-10.48438 -19.5585,-10.48438c-4.79108,0 -5.52386,0.11295 -6.48209,1.18414z"/>
   <path id="svg_35" d="m31.6429,342.832c0.5074,9.35699 0.6764,10.202 2.5365,11.55499c0.9017,0.67599 2.1418,2.08499 2.7619,3.10101c0.7327,1.23898 1.5218,1.85898 2.3673,1.85898c1.6909,0 3.8329,0.62003 3.8329,1.07101c0,0.16901 -0.5637,0.621 -1.2965,0.90201c-1.9728,0.90198 -1.86,2.76199 0.3383,4.453c2.2544,1.74698 3.8326,1.85999 5.0726,0.45099c0.9019,-0.95898 0.9019,-1.241 -0.1125,-4.22699c-0.5637,-1.74802 -2.0293,-4.509 -3.2693,-6.14401c-1.1837,-1.63501 -2.5928,-3.88998 -3.1002,-4.961c-3.269,-7.26999 -4.509,-9.694 -6.0873,-11.49701c-2.9872,-3.32599 -3.3818,-2.875 -3.0437,3.43701l0,0z"/>
   <path id="svg_36" d="m143.92146,361.37646c-0.22543,0.16895 -0.22543,3.43793 -0.05623,7.21484c0.16907,3.71985 0,9.97601 -0.33827,13.86584c-0.50722,5.80524 -0.90173,7.55267 -2.19821,9.9765c-1.18365,2.25427 -1.3526,3.09955 -0.8455,3.60736c1.07094,1.07071 3.15643,-0.67676 5.24193,-4.28418c1.8602,-3.21204 3.04373,-3.88928 3.6638,-1.97293c0.56371,1.69156 5.69278,6.03122 7.66556,6.42612c2.81828,0.56332 5.18559,0.39441 6.7075,-0.50784c1.7471,-1.01422 4.0018,-1.07071 5.91823,-0.16898c1.69099,0.78931 1.74722,1.07123 0.28191,2.42383c-2.19832,1.9729 -1.46556,2.53619 3.38174,2.53619c3.72014,0 4.56551,-0.16891 5.01637,-1.01416c0.78914,-1.46561 -0.33803,-3.04413 -4.22723,-5.97473c-4.22736,-3.1561 -5.69278,-3.72043 -9.41281,-3.72043c-2.19832,0 -3.49483,-0.33786 -5.01662,-1.40906c-4.22725,-2.87463 -9.75096,-12.62521 -12.51289,-21.9819c-1.35283,-4.73462 -2.25458,-6.08768 -3.26927,-5.01648z"/>
   <path id="svg_37" d="m151.92532,367.01276c-1.40907,3.26901 -1.40907,4.00183 0.16908,4.79108c3.21265,1.6915 5.46747,4.84708 5.97481,8.6239c0.22531,1.40958 0.73268,2.4238 1.46533,2.81769c0.62007,0.33887 2.14197,1.24063 3.38199,1.97339c3.4381,2.19788 4.56551,2.76166 6.42546,3.15607c0.90198,0.16995 3.6073,1.12717 5.97458,2.02939c8.5112,3.26901 8.5112,1.9729 0,-4.96002c-7.89101,-6.48157 -17.3602,-15.44388 -19.50217,-18.6004c-0.95822,-1.35263 -1.91641,-2.42377 -2.25444,-2.42377c-0.28181,0 -1.07106,1.18362 -1.63464,2.59268z"/>
   <path id="svg_38" d="m347.229,366.11099c-0.50702,0.789 -10.65302,9.41299 -14.37302,12.17401c-4.05798,3.04401 -6.48199,4.51099 -12.96399,7.948c-6.93298,3.664 -11.66699,5.242 -15.444,5.242c-5.80499,0 -13.245,2.02899 -17.24701,4.67899c-2.086,1.409 -2.875,1.578 -5.18597,1.409c-1.46503,-0.16898 -2.931,0 -3.21301,0.28201c-0.73199,0.73199 0.22601,2.64801 1.297,2.64801c1.12701,0 8.34201,5.24298 11.104,8.11697c1.35199,1.40903 2.76099,2.59302 3.10001,2.59302c0.789,0 1.35199,-1.297 1.35199,-2.875c0,-1.74701 2.02899,-5.298 3.89001,-6.87701c2.08499,-1.69 6.651,-3.49399 10.42697,-4.05698c1.522,-0.22601 4.00201,-1.18402 5.52402,-2.03c1.465,-0.901 4.00198,-2.423 5.57999,-3.32501c1.578,-0.95801 3.49503,-1.69101 4.284,-1.69101c1.01401,0 2.53601,-1.01498 4.90302,-3.26999c4.284,-4.00201 7.83499,-6.87601 8.173,-6.59399c0.11301,0.16901 0.16901,2.142 0.11301,4.453c-0.16901,5.74899 1.18399,10.146 3.88898,12.85098c3.49503,3.495 4.34003,2.64902 2.142,-2.142c-1.57797,-3.49399 -1.69098,-11.216 -0.16898,-16.289c1.69098,-5.97501 2.59299,-8.39798 3.72,-10.315c0.564,-1.01498 1.07098,-2.254 1.07098,-2.70599c0,-0.901 -1.465,-1.07098 -1.97299,-0.22501l0,0z"/>
   <path id="svg_39" d="m335.67438,388.48785c0,0.28192 -2.31107,2.8186 -5.07288,5.69275c-3.3255,3.43799 -5.24179,5.80579 -5.46722,6.93295c-0.33841,1.91644 -1.5784,2.76218 -4.00192,2.76218c-1.8602,0 -3.2128,1.23962 -2.76193,2.47974c0.16907,0.45087 1.40909,1.40912 2.76193,2.08588c6.651,3.38153 14.1474,9.24329 15.5567,12.17438c0.67618,1.40906 1.2399,1.85995 2.08551,1.74701c0.61993,-0.11249 1.0708,-0.5069 1.01443,-0.84528c-0.1127,-0.39441 -0.3945,-2.76169 -0.67642,-5.29791c-0.56357,-5.12946 -1.69086,-7.21484 -4.39642,-8.1171c-3.83286,-1.29611 -4.39642,-2.8746 -2.08551,-5.97421c4.11465,-5.46783 6.42572,-13.41449 4.05841,-13.9223c-0.56381,-0.11249 -1.01468,0 -1.01468,0.28192z"/>
   <path id="svg_40" d="m194.64999,391.08099c-1.69099,0.78799 -13.47099,12.005 -15.83899,15.10501c-0.95801,1.241 -1.40901,2.42398 -1.183,2.98801c0.45099,1.23999 0.95799,1.12698 3.043,-0.56403c0.959,-0.84497 2.931,-1.74698 4.39699,-2.02899c1.46501,-0.22598 3.88901,-1.23999 5.35501,-2.142c2.92999,-1.80301 4.452,-1.634 5.185,0.50702c0.507,1.57898 2.367,2.59299 6.144,3.32599c5.298,1.07098 8.004,0.845 10.765,-0.789c2.368,-1.353 2.76201,-1.409 8.004,-1.07101c8.399,0.50702 19.27701,0.67603 20.01001,0.22501c0.95799,-0.62 0.056,-2.198 -1.24001,-2.198c-3.83301,0 -15.50101,-1.297 -18.601,-2.02899c-8.45401,-2.086 -11.78,-3.664 -16.627,-8.06c-2.142,-1.91602 -4.34,-3.43802 -5.41101,-3.664c-2.19899,-0.45102 -2.142,-0.45102 -4.002,0.39499l0,0z"/>
   <path id="svg_41" d="m134.96001,402.57901c-5.58101,4.509 -12.34401,9.07498 -14.65501,9.86398c-1.86,0.62 -2.255,2.53601 -0.62,3.10001c0.507,0.16901 2.931,1.63501 5.411,3.15601l4.453,2.875l6.256,0.22501c3.438,0.11298 6.48201,0.45099 6.82001,0.733c0.282,0.28198 0.90199,0.50699 1.409,0.50699c1.12801,0.05701 3.382,1.97299 3.382,2.931c0,0.452 -0.62,1.41 -1.353,2.086c-0.789,0.733 -1.80301,2.198 -2.31,3.21301c-0.50801,1.07098 -1.12801,1.91599 -1.41,1.91599c-0.28101,0 -1.01401,-0.95801 -1.634,-2.142c-0.62,-1.18399 -1.91699,-2.931 -2.931,-3.94501c-1.578,-1.578 -2.255,-1.80399 -4.67799,-1.80399c-1.63501,0.056 -3.664,0.50699 -4.735,1.01498c-2.649,1.409 -13.64001,12.513 -14.035,14.203c-1.071,4.11502 -0.113,14.543 1.86,19.55902c0.958,2.42398 1.353,4.62198 1.353,7.215c0,5.69299 -1.804,8.39798 -6.989,10.70898c-2.537,1.12701 -3.1,1.69101 -4.51,4.56601c-1.634,3.26898 -2.649,8.67999 -1.69,8.67999c0.28101,0 1.803,-1.18399 3.325,-2.64899c13.358,-12.28802 14.26,-13.47202 15.557,-19.841c0.676,-3.10001 0.62,-4.05801 -0.282,-8.116c-2.19801,-9.69501 -1.86,-11.89301 2.48,-17.86801c3.607,-4.90298 5.07301,-6.20001 7.497,-6.59399c1.69,-0.22601 2.08501,-0.11301 2.92999,1.18298c0.789,1.24002 0.90201,2.64902 0.733,9.75101c-0.11299,4.565 -0.394,8.737 -0.62,9.18802c-0.564,1.23999 0.395,2.42297 1.63499,2.02899c1.35201,-0.39401 3.832,-4.17099 5.07201,-7.60901c2.03,-5.694 3.77699,-9.526 5.97501,-12.73898c2.70599,-4.05801 8.22899,-9.86401 11.61099,-12.17502c1.297,-0.95801 2.368,-1.91599 2.368,-2.254c0,-0.62 -0.05699,-0.62 -5.63699,-1.85999c-10.59601,-2.36801 -16.797,-5.242 -16.12,-7.55301c0.16899,-0.508 0.56299,-2.02899 0.845,-3.26901c0.84599,-3.15698 2.98799,-5.186 5.97499,-5.58099c2.70601,-0.45099 4.396,0.22601 9.3,3.83301c3.88899,2.875 4.058,3.10098 3.72,5.29898c-0.16901,1.07101 0.05699,2.02902 0.507,2.423c0.564,0.45102 1.57899,-0.33798 4.45299,-3.43799c2.02901,-2.198 3.72,-4.34 3.72,-4.73502c0,-0.39398 -1.183,-1.12698 -2.649,-1.63397c-3.043,-1.12701 -3.43799,-1.29602 -8.905,-3.72c-2.142,-0.95801 -4.735,-2.367 -5.75,-3.15701c-1.57799,-1.18301 -2.36699,-1.35199 -7.101,-1.35199l-5.355,0l-4.67799,3.776l0,0z"/>
   <path id="svg_42" d="m257.60901,402.18399c-1.522,0.90201 -3.494,1.69202 -4.283,1.69202c-1.804,0 -3.213,1.465 -2.36801,2.31c0.33801,0.33899 2.649,0.733 5.12901,0.90201c4.05899,0.28198 4.56601,0.22598 5.69299,-0.90201c0.62,-0.61902 1.522,-1.18301 1.97299,-1.18301c1.409,0 3.94501,-2.53699 3.55099,-3.552c-0.28198,-0.73199 -1.07098,-0.95798 -3.60699,-0.95798c-2.59299,0 -3.83298,0.33899 -6.08798,1.69098l0,0z"/>
   <path id="svg_43" d="m354.83838,412.89355c0,3.66391 -0.1127,4.00226 -1.86005,5.74927c-1.91644,1.91641 -7.44016,4.90405 -11.21652,6.08765c-1.57816,0.5069 -3.66367,0.5069 -8.11646,0.05649c-3.26917,-0.33838 -6.20029,-0.45132 -6.48218,-0.28189c-1.24002,0.7323 -0.33804,2.47974 2.19833,4.11475c2.36728,1.52155 3.2691,1.74701 6.53842,1.74701c2.14169,0 5.35449,-0.3949 7.2146,-0.90173c4.17099,-1.07068 4.79105,-0.6203 3.49457,2.36731c-3.0437,7.10187 -3.0437,7.04584 -1.07092,9.01828c2.3674,2.36731 3.66376,5.29794 3.66376,8.22903c0,1.52203 -0.16907,2.70569 -0.39462,2.70569c-0.28177,0 -1.1835,-0.50735 -2.14172,-1.12714c-1.69113,-1.1272 -6.9328,-1.57855 -8.96207,-0.78931c-1.74734,0.6763 -0.95822,2.36734 1.69098,3.66394c3.66379,1.74698 5.63644,4.00177 6.03107,6.76349c0.33804,2.5932 1.24002,3.88928 2.64911,3.88928c0.56357,0 2.93085,-1.52151 5.35464,-3.38147c5.86188,-4.50961 5.9747,-4.50961 4.39655,0.61932c-1.12753,3.83289 -1.29648,10.14594 -0.22556,11.38562c1.18353,1.466 1.63464,1.18411 2.31107,-1.46509c1.85992,-7.10236 3.55081,-11.3291 5.97458,-14.82407c1.52179,-2.19785 1.97266,-3.32553 1.80359,-4.79108c-0.16895,-1.69101 -0.3945,-1.91641 -1.86008,-2.08536c-1.29636,-0.11252 -2.36728,0.39435 -4.50903,2.19827c-2.70566,2.19836 -2.93097,2.31085 -6.03119,2.08542c-3.94531,-0.28192 -5.01636,-1.0712 -3.66351,-2.59271c1.0708,-1.18365 3.77637,-11.1037 3.77637,-13.9223c0.05624,-3.26904 2.02914,-10.82178 3.49457,-13.30206c1.69089,-2.81812 3.21271,-4.50912 6.53842,-7.27081c2.36731,-1.91644 2.98724,-3.49445 1.69089,-4.34021c-0.39462,-0.22543 -2.19821,-0.56381 -4.05841,-0.78925c-1.97269,-0.22543 -3.94547,-0.90173 -4.90366,-1.57806c-2.8183,-2.08533 -3.32553,-1.69049 -3.32553,2.76172z"/>
   <path id="svg_44" d="m233.091,410.75201c-1.804,0.67599 -5.299,1.29599 -8.455,1.52197l-5.355,0.33801l-0.67601,2.76199c-0.39499,1.522 -1.23999,3.32501 -1.91699,4.05801c-0.67601,0.733 -1.07001,1.69098 -0.90201,2.142c0.282,0.733 0.733,0.733 3.608,0.056c4.847,-1.12701 5.80501,-1.578 11.32901,-5.354c5.74899,-3.88901 8.004,-4.51001 11.04799,-3.10001c2.142,1.01401 5.918,5.354 7.722,8.849c1.29601,2.59302 2.311,2.64902 4.565,0.45102c0.90201,-0.95901 3.09999,-2.36801 4.791,-3.15701c2.48001,-1.18301 3.664,-1.40799 6.14401,-1.23999c3.664,0.33798 5.52399,1.85999 7.94699,6.42599c1.297,2.53598 1.80399,3.04401 3.10001,3.04401c2.53699,0 5.41199,-1.69101 6.08798,-3.608c0.33801,-0.95801 1.12701,-3.043 1.74701,-4.565c1.18399,-3.15601 1.409,-5.91901 0.45099,-5.91901c-0.33798,0 -1.80399,1.241 -3.26898,2.819c-3.664,3.94501 -5.242,3.776 -10.315,-0.90201c-1.409,-1.353 -3.26901,-2.59299 -4.05801,-2.81799c-1.74698,-0.39499 -4.56598,0.56299 -6.53799,2.31c-3.72101,3.32599 -6.144,2.93201 -11.49899,-1.97198l-3.72,-3.38202l-4.396,0.05701c-2.875,0 -5.35501,0.39401 -7.44,1.18301l0,0z"/>
   <path id="svg_45" d="m203.556,412.27399c-0.84599,1.35202 3.494,6.48203 6.2,7.384c3.325,1.12701 6.87601,-1.63498 7.38301,-5.69299l0.33899,-2.36801l-1.91699,0.45102c-2.311,0.62 -8.116,0.62 -10.14601,0.05701c-0.90099,-0.28201 -1.63399,-0.22601 -1.86,0.16898l0.00101,0z"/>
   <path id="svg_46" d="m361.60223,472.75314c-2.7619,1.63452 -5.07285,4.79105 -5.07285,6.87646c0,0.95816 0.50735,2.53619 1.12717,3.55093c1.18378,1.91641 5.01648,4.6781 6.53854,4.6781c1.52179,0 6.53815,2.93109 9.24371,5.35486c1.40909,1.29614 3.38187,2.70569 4.39633,3.10007c0.95819,0.4509 1.80371,1.01474 1.80371,1.24017c0,0.28189 1.80359,0.45087 3.94556,0.45087c2.19821,0 3.94571,-0.16898 3.94571,-0.45087c-0.05649,-1.18372 -1.8602,-2.47977 -4.56564,-3.26904c-1.69101,-0.50787 -3.55093,-1.2966 -4.11465,-1.80399c-1.35272,-1.23962 -3.72,-6.20013 -3.72,-7.89066c0,-2.76215 -2.98749,-6.59503 -4.84753,-6.20062c-0.61996,0.11301 -1.2399,0.95822 -1.57816,2.0289c-0.33817,1.18411 -0.84552,1.80396 -1.52194,1.80396c-1.29623,0 -1.40906,-2.42328 -0.22531,-4.50916c1.18353,-2.08539 1.07083,-4.90399 -0.22556,-5.63629c-1.57803,-0.84531 -2.93088,-0.67633 -5.12909,0.6763z"/>
  </g>
 </g>
</svg>